<svg width="18" height="18" viewBox="0 0 18 18" fill="none" xmlns="http://www.w3.org/2000/svg">
<path d="M5.41785 13.0618V14.6945" stroke="#6D737A" stroke-width="1.08848" stroke-linecap="round" stroke-linejoin="round"/>
<path d="M13.0372 13.0618V14.6945" stroke="#6D737A" stroke-width="1.08848" stroke-linecap="round" stroke-linejoin="round"/>
<path d="M4.32935 7.07514V3.53757C4.32935 3.17672 4.47269 2.83065 4.72786 2.57548C4.98302 2.32032 5.32909 2.17697 5.68995 2.17697C6.0508 2.17697 6.39688 2.32032 6.65204 2.57548C6.9072 2.83065 7.05055 3.17672 7.05055 3.53757" stroke="#6D737A" stroke-width="1.08848" stroke-linecap="round" stroke-linejoin="round"/>
<path d="M14.1257 6.53088H9.77173V9.79633H14.1257V6.53088Z" stroke="#6D737A" stroke-width="1.08848" stroke-linecap="round" stroke-linejoin="round"/>
<path d="M14.1257 7.07513H16.3027C16.447 7.07513 16.5854 7.13247 16.6875 7.23454C16.7896 7.3366 16.8469 7.47503 16.8469 7.61938V9.79634C16.8469 10.6624 16.5029 11.493 15.8905 12.1054C15.2781 12.7178 14.4475 13.0618 13.5815 13.0618H4.8736C4.00755 13.0618 3.17697 12.7178 2.56458 12.1054C1.95219 11.493 1.60815 10.6624 1.60815 9.79634V7.61938C1.60815 7.47503 1.66549 7.3366 1.76756 7.23454C1.86962 7.13247 2.00805 7.07513 2.1524 7.07513H9.77177" stroke="#6D737A" stroke-width="1.08848" stroke-linecap="round" stroke-linejoin="round"/>
</svg>
