<svg width="18" height="18" viewBox="0 0 18 18" fill="none" xmlns="http://www.w3.org/2000/svg">
<path d="M4.91772 13.0618V14.6945" stroke="#6D737A" stroke-width="1.08848" stroke-linecap="round" stroke-linejoin="round"/>
<path d="M12.5371 13.0618V14.6945" stroke="#6D737A" stroke-width="1.08848" stroke-linecap="round" stroke-linejoin="round"/>
<path d="M3.8291 7.07514V3.53757C3.8291 3.17672 3.97245 2.83065 4.22761 2.57548C4.48278 2.32032 4.82885 2.17697 5.1897 2.17697C5.55056 2.17697 5.89663 2.32032 6.1518 2.57548C6.40696 2.83065 6.55031 3.17672 6.55031 3.53757" stroke="#6D737A" stroke-width="1.08848" stroke-linecap="round" stroke-linejoin="round"/>
<path d="M13.6257 6.53088H9.27173V9.79633H13.6257V6.53088Z" stroke="#6D737A" stroke-width="1.08848" stroke-linecap="round" stroke-linejoin="round"/>
<path d="M13.6255 7.07513H15.8024C15.9468 7.07513 16.0852 7.13247 16.1873 7.23454C16.2893 7.3366 16.3467 7.47503 16.3467 7.61938V9.79634C16.3467 10.6624 16.0026 11.493 15.3902 12.1054C14.7778 12.7178 13.9473 13.0618 13.0812 13.0618H4.37336C3.50731 13.0618 2.67673 12.7178 2.06434 12.1054C1.45195 11.493 1.10791 10.6624 1.10791 9.79634V7.61938C1.10791 7.47503 1.16525 7.3366 1.26731 7.23454C1.36938 7.13247 1.50781 7.07513 1.65215 7.07513H9.27153" stroke="#6D737A" stroke-width="1.08848" stroke-linecap="round" stroke-linejoin="round"/>
</svg>
