<svg width="18" height="18" viewBox="0 0 18 18" fill="none" xmlns="http://www.w3.org/2000/svg">
<path d="M1.33838 8.16364H16.5771" stroke="#6D737A" stroke-width="1.08848" stroke-linecap="round" stroke-linejoin="round"/>
<path d="M15.4888 12.5175V14.1503C15.4888 14.2946 15.4314 14.433 15.3294 14.5351C15.2273 14.6372 15.0889 14.6945 14.9445 14.6945H13.3118C13.1675 14.6945 13.029 14.6372 12.927 14.5351C12.8249 14.433 12.7676 14.2946 12.7676 14.1503V12.5175" stroke="#6D737A" stroke-width="1.08848" stroke-linecap="round" stroke-linejoin="round"/>
<path d="M5.14821 12.5175V14.1503C5.14821 14.2946 5.09087 14.433 4.9888 14.5351C4.88674 14.6372 4.74831 14.6945 4.60397 14.6945H2.97124C2.8269 14.6945 2.68847 14.6372 2.58641 14.5351C2.48434 14.433 2.427 14.2946 2.427 14.1503V12.5175" stroke="#6D737A" stroke-width="1.08848" stroke-linecap="round" stroke-linejoin="round"/>
<path d="M4.604 10.3406H5.69249" stroke="#6D737A" stroke-width="1.08848" stroke-linecap="round" stroke-linejoin="round"/>
<path d="M12.2234 10.3406H13.3119" stroke="#6D737A" stroke-width="1.08848" stroke-linecap="round" stroke-linejoin="round"/>
<path d="M15.4888 8.16361L13.4547 3.59199C13.4125 3.49527 13.3431 3.41291 13.2549 3.35493C13.1667 3.29696 13.0636 3.26587 12.9581 3.26544H4.95772C4.8522 3.26587 4.74907 3.29696 4.6609 3.35493C4.57273 3.41291 4.50331 3.49527 4.4611 3.59199L2.427 8.16361V12.5175H15.4888V8.16361Z" stroke="#6D737A" stroke-width="1.08848" stroke-linecap="round" stroke-linejoin="round"/>
</svg>
