<svg width="23" height="22" viewBox="0 0 23 22" fill="none" xmlns="http://www.w3.org/2000/svg">
<path d="M11.6818 18.3609C11.6818 18.3609 3.31691 13.6766 3.31691 7.98843C3.31691 6.98287 3.6653 6.00837 4.30281 5.23073C4.94033 4.4531 5.82757 3.92035 6.8136 3.72315C7.79963 3.52594 8.82353 3.67646 9.71109 4.14908C10.5987 4.6217 11.2951 5.38724 11.6818 6.31545V6.31545C12.0686 5.38724 12.765 4.6217 13.6525 4.14908C14.5401 3.67646 15.564 3.52594 16.55 3.72315C17.536 3.92035 18.4233 4.4531 19.0608 5.23073C19.6983 6.00837 20.0467 6.98287 20.0467 7.98843C20.0467 13.6766 11.6818 18.3609 11.6818 18.3609Z" stroke="#4A60A1" stroke-width="1.38209" stroke-linecap="round" stroke-linejoin="round"/>
</svg>
