<svg width="15" height="16" viewBox="0 0 15 16" fill="none" xmlns="http://www.w3.org/2000/svg">
<path d="M7.31469 13.192C7.31469 13.192 1.64551 10.0173 1.64551 6.16224C1.64551 5.48074 1.88163 4.82029 2.31369 4.29326C2.74575 3.76623 3.34707 3.40517 4.01534 3.27152C4.6836 3.13786 5.37753 3.23987 5.97907 3.56018C6.5806 3.8805 7.05257 4.39933 7.31469 5.02841V5.02841C7.5768 4.39933 8.04878 3.8805 8.65031 3.56018C9.25184 3.23987 9.94577 3.13786 10.614 3.27152C11.2823 3.40517 11.8836 3.76623 12.3157 4.29326C12.7477 4.82029 12.9839 5.48074 12.9839 6.16224C12.9839 10.0173 7.31469 13.192 7.31469 13.192Z" stroke="#4A60A1" stroke-width="0.936687" stroke-linecap="round" stroke-linejoin="round"/>
</svg>
