<svg width="23" height="22" viewBox="0 0 23 22" fill="none" xmlns="http://www.w3.org/2000/svg">
<path d="M11.6818 18.3611C11.6818 18.3611 3.31691 13.6768 3.31691 7.98867C3.31691 6.98311 3.6653 6.00862 4.30281 5.23098C4.94033 4.45334 5.82757 3.9206 6.8136 3.72339C7.79963 3.52619 8.82353 3.6767 9.71109 4.14932C10.5987 4.62195 11.2951 5.38749 11.6818 6.31569V6.31569C12.0686 5.38749 12.765 4.62195 13.6525 4.14932C14.5401 3.6767 15.564 3.52619 16.55 3.72339C17.536 3.9206 18.4233 4.45334 19.0608 5.23098C19.6983 6.00862 20.0467 6.98311 20.0467 7.98867C20.0467 13.6768 11.6818 18.3611 11.6818 18.3611Z" stroke="#4A60A1" stroke-width="1.38209" stroke-linecap="round" stroke-linejoin="round"/>
</svg>
