<svg width="79" height="78" viewBox="0 0 79 78" fill="none" xmlns="http://www.w3.org/2000/svg">
<path d="M69.3086 38.2564H69.2868C68.9911 38.2564 68.7063 38.1439 68.4905 37.9444L56.239 26.5854C55.7638 26.1446 55.7366 25.4027 56.1755 24.9293C56.6163 24.454 57.3582 24.4268 57.8317 24.8658L69.958 36.1069C70.2736 36.3173 70.4804 36.6764 70.4804 37.0828C70.4804 37.7322 69.9561 38.2564 69.3086 38.2564ZM45.7562 16.4436C45.4714 16.4436 45.1848 16.3402 44.9599 16.1316C41.4535 12.8828 38.9901 10.5972 38.9901 10.5972C38.6727 10.3034 38.5439 9.85896 38.6527 9.43993C38.7616 9.02091 39.0935 8.69803 39.5144 8.59644L39.7339 8.54384C40.3579 8.3951 40.9855 8.77603 41.1433 9.3964C42.0612 10.2471 44.0402 12.0829 46.5543 14.412C47.0296 14.8528 47.0568 15.5947 46.6178 16.0681C46.3856 16.3166 46.0718 16.4436 45.7562 16.4436Z" fill="#4A60A1"/>
<path d="M63.4297 69.4896C62.8238 69.4896 62.3105 69.0235 62.2615 68.4103C62.2416 68.1564 62.3032 67.9151 62.4248 67.7138V37.0761C62.4248 36.4285 62.949 35.9043 63.5966 35.9043C64.2442 35.9043 64.7684 36.4285 64.7684 37.0761V68.3051C64.7684 68.9164 64.2986 69.4243 63.6891 69.4733L63.5222 69.486C63.4914 69.4878 63.4605 69.4896 63.4297 69.4896Z" fill="#4A60A1"/>
<path d="M58.1599 25.4301C57.5142 25.4301 56.9881 24.9077 56.9881 24.2601L56.9664 13.926C56.4711 13.7809 56.1156 13.3202 56.1247 12.7796C56.1374 12.132 56.6761 11.6114 57.3183 11.6295L58.1581 11.6441C58.7966 11.6549 59.3082 12.1755 59.3082 12.8141L59.3317 24.2547C59.3336 24.9022 58.8093 25.4283 58.1618 25.4301C58.1618 25.4301 58.1618 25.4301 58.1599 25.4301Z" fill="#4A60A1"/>
<path d="M56.682 26.1856C56.682 26.9713 57.3181 27.6074 58.1038 27.6074C58.8889 27.6074 59.5274 26.9718 59.5274 26.1856V12.6699C59.5274 11.8842 58.8913 11.248 58.1056 11.248H49.5546C48.769 11.248 48.1328 11.8842 48.1328 12.6699V18.2115C48.1328 18.9971 48.769 19.6333 49.5546 19.6333C50.3403 19.6333 50.9764 18.9971 50.9764 18.2115V14.0917H56.682V26.1856Z" fill="#1E2640" stroke="#1E2640" stroke-width="0.5"/>
<path d="M48.622 68.3132V68.3125V43.2382C48.622 42.4526 47.9858 41.8164 47.2002 41.8164H32.0283C31.2426 41.8164 30.6064 42.4526 30.6064 43.2382V68.3107C30.6064 69.0963 31.2426 69.7325 32.0283 69.7325C32.8139 69.7325 33.4501 69.0963 33.4501 68.3107V44.66H45.7765V68.3125C45.7765 69.0982 46.4127 69.7343 47.1984 69.7343C47.9844 69.7343 48.6198 69.0961 48.622 68.3132Z" fill="#1E2640" stroke="#1E2640" stroke-width="0.5"/>
<path d="M8.6414 38.0438C8.92115 38.3499 9.30659 38.506 9.69116 38.506C10.0342 38.506 10.3778 38.3827 10.6504 38.1342L10.6507 38.134L39.6057 11.6677L68.1464 38.1273L68.1467 38.1277C68.723 38.6599 69.621 38.6272 70.1558 38.0505L70.1558 38.0505C70.6887 37.4758 70.6554 36.5757 70.079 36.0411L70.0789 36.0411L40.579 8.69243C40.037 8.18792 39.1983 8.18611 38.6526 8.68556L8.73161 36.0344L8.73138 36.0346C8.15319 36.5645 8.11061 37.4643 8.6414 38.0438ZM8.6414 38.0438C8.64146 38.0438 8.64153 38.0439 8.64159 38.044L8.82591 37.8751L8.64134 38.0437C8.64136 38.0437 8.64138 38.0438 8.6414 38.0438Z" fill="#4A60A1" stroke="#4A60A1" stroke-width="0.5"/>
<path d="M15.3071 69.7364H63.6072L65.0272 68.3121V33.757C65.0272 32.9713 64.3911 32.3352 63.6054 32.3352C62.8197 32.3352 62.1836 32.9713 62.1836 33.757V66.891H16.7289V32.7031C16.7289 31.9174 16.0927 31.2812 15.3071 31.2812C14.5214 31.2812 13.8853 31.9174 13.8853 32.7031V68.3146C13.8853 69.1003 14.5214 69.7364 15.3071 69.7364Z" fill="#4A60A1" stroke="#4A60A1" stroke-width="0.5"/>
</svg>
