<svg width="79" height="78" viewBox="0 0 79 78" fill="none" xmlns="http://www.w3.org/2000/svg">
<path d="M69.3087 38.2564H69.2869C68.9912 38.2564 68.7064 38.1439 68.4906 37.9444L56.2391 26.5854C55.7639 26.1446 55.7367 25.4027 56.1757 24.9293C56.6164 24.454 57.3584 24.4268 57.8318 24.8658L69.9581 36.1069C70.2737 36.3173 70.4805 36.6764 70.4805 37.0828C70.4805 37.7322 69.9563 38.2564 69.3087 38.2564ZM45.7563 16.4436C45.4715 16.4436 45.1849 16.3402 44.96 16.1316C41.4536 12.8828 38.9903 10.5972 38.9903 10.5972C38.6728 10.3034 38.544 9.85896 38.6529 9.43993C38.7617 9.02091 39.0937 8.69803 39.5145 8.59644L39.734 8.54384C40.358 8.3951 40.9856 8.77603 41.1434 9.3964C42.0613 10.2471 44.0403 12.0829 46.5544 14.412C47.0297 14.8528 47.0569 15.5947 46.6179 16.0681C46.3857 16.3166 46.0719 16.4436 45.7563 16.4436Z" fill="#4A60A1"/>
<path d="M63.4297 69.4896C62.8238 69.4896 62.3105 69.0235 62.2615 68.4103C62.2416 68.1564 62.3032 67.9151 62.4248 67.7138V37.0761C62.4248 36.4285 62.949 35.9043 63.5966 35.9043C64.2442 35.9043 64.7684 36.4285 64.7684 37.0761V68.3051C64.7684 68.9164 64.2986 69.4243 63.6891 69.4733L63.5222 69.486C63.4914 69.4878 63.4605 69.4896 63.4297 69.4896Z" fill="#4A60A1"/>
<path d="M58.1602 25.4301C57.5144 25.4301 56.9884 24.9077 56.9884 24.2601L56.9666 13.926C56.4714 13.7809 56.1159 13.3202 56.1249 12.7796C56.1376 12.132 56.6764 11.6114 57.3185 11.6295L58.1584 11.6441C58.7969 11.6549 59.3084 12.1755 59.3084 12.8141L59.332 24.2547C59.3338 24.9022 58.8096 25.4283 58.162 25.4301C58.162 25.4301 58.162 25.4301 58.1602 25.4301Z" fill="#4A60A1"/>
<path d="M56.6821 26.1856C56.6821 26.9713 57.3183 27.6074 58.1039 27.6074C58.8891 27.6074 59.5275 26.9718 59.5275 26.1856V12.6699C59.5275 11.8842 58.8914 11.248 58.1057 11.248H49.5547C48.7691 11.248 48.1329 11.8842 48.1329 12.6699V18.2115C48.1329 18.9971 48.7691 19.6333 49.5547 19.6333C50.3404 19.6333 50.9766 18.9971 50.9766 18.2115V14.0917H56.6821V26.1856Z" fill="#1E2640" stroke="#1E2640" stroke-width="0.5"/>
<path d="M8.64152 38.0438C8.92128 38.3499 9.30671 38.506 9.69129 38.506C10.0343 38.506 10.3779 38.3827 10.6506 38.1342L10.6508 38.134L39.6058 11.6677L68.1465 38.1273L68.1468 38.1277C68.7231 38.6599 69.6211 38.6272 70.1559 38.0505L70.1559 38.0505C70.6888 37.4758 70.6555 36.5757 70.0791 36.0411L70.0791 36.0411L40.5791 8.69243C40.0372 8.18792 39.1984 8.18611 38.6528 8.68556L8.73174 36.0344L8.7315 36.0346C8.15331 36.5645 8.11073 37.4643 8.64152 38.0438ZM8.64152 38.0438C8.64158 38.0438 8.64165 38.0439 8.64171 38.044L8.82603 37.8751L8.64147 38.0437C8.64148 38.0437 8.6415 38.0438 8.64152 38.0438Z" fill="#4A60A1" stroke="#4A60A1" stroke-width="0.5"/>
<path d="M15.3073 69.7364H63.6074L65.0275 68.3121V33.757C65.0275 32.9713 64.3913 32.3352 63.6056 32.3352C62.82 32.3352 62.1838 32.9713 62.1838 33.757V66.891H16.7291V32.7031C16.7291 31.9174 16.093 31.2812 15.3073 31.2812C14.5217 31.2812 13.8855 31.9174 13.8855 32.7031V68.3146C13.8855 69.1003 14.5217 69.7364 15.3073 69.7364Z" fill="#4A60A1" stroke="#4A60A1" stroke-width="0.5"/>
<path d="M38.375 51.75C42.7242 51.75 46.25 48.2242 46.25 43.875C46.25 39.5258 42.7242 36 38.375 36C34.0258 36 30.5 39.5258 30.5 43.875C30.5 48.2242 34.0258 51.75 38.375 51.75Z" stroke="#1E2640" stroke-width="2" stroke-linecap="round" stroke-linejoin="round"/>
<path d="M43.9437 49.4434L48.5 53.9996" stroke="#1E2640" stroke-width="2" stroke-linecap="round" stroke-linejoin="round"/>
</svg>
