<svg width="25" height="25" viewBox="0 0 25 25" fill="none" xmlns="http://www.w3.org/2000/svg">
<path d="M12.125 13.7407C13.7819 13.7407 15.125 12.3976 15.125 10.7407C15.125 9.08387 13.7819 7.74072 12.125 7.74072C10.4681 7.74072 9.125 9.08387 9.125 10.7407C9.125 12.3976 10.4681 13.7407 12.125 13.7407Z" stroke="white" stroke-width="1.5" stroke-linecap="round" stroke-linejoin="round"/>
<path d="M19.625 10.7407C19.625 17.4907 12.125 22.7407 12.125 22.7407C12.125 22.7407 4.625 17.4907 4.625 10.7407C4.625 8.7516 5.41518 6.84394 6.8217 5.43742C8.22822 4.0309 10.1359 3.24072 12.125 3.24072C14.1141 3.24072 16.0218 4.0309 17.4283 5.43742C18.8348 6.84394 19.625 8.7516 19.625 10.7407V10.7407Z" stroke="white" stroke-width="1.5" stroke-linecap="round" stroke-linejoin="round"/>
</svg>
