<svg width="15" height="16" viewBox="0 0 15 16" fill="none" xmlns="http://www.w3.org/2000/svg">
<path d="M3.91008 10.0173C4.91201 10.0173 5.72422 9.20507 5.72422 8.20314C5.72422 7.20122 4.91201 6.38901 3.91008 6.38901C2.90816 6.38901 2.09595 7.20122 2.09595 8.20314C2.09595 9.20507 2.90816 10.0173 3.91008 10.0173Z" stroke="#4A60A1" stroke-width="0.936687" stroke-linecap="round" stroke-linejoin="round"/>
<path d="M10.2596 14.0991C11.2615 14.0991 12.0737 13.2869 12.0737 12.285C12.0737 11.283 11.2615 10.4708 10.2596 10.4708C9.25765 10.4708 8.44543 11.283 8.44543 12.285C8.44543 13.2869 9.25765 14.0991 10.2596 14.0991Z" stroke="#4A60A1" stroke-width="0.936687" stroke-linecap="round" stroke-linejoin="round"/>
<path d="M10.2596 5.93547C11.2615 5.93547 12.0737 5.12325 12.0737 4.12133C12.0737 3.11941 11.2615 2.30719 10.2596 2.30719C9.25765 2.30719 8.44543 3.11941 8.44543 4.12133C8.44543 5.12325 9.25765 5.93547 10.2596 5.93547Z" stroke="#4A60A1" stroke-width="0.936687" stroke-linecap="round" stroke-linejoin="round"/>
<path d="M8.73464 5.10208L5.43518 7.22235" stroke="#4A60A1" stroke-width="0.936687" stroke-linecap="round" stroke-linejoin="round"/>
<path d="M5.43518 9.1839L8.73464 11.3042" stroke="#4A60A1" stroke-width="0.936687" stroke-linecap="round" stroke-linejoin="round"/>
</svg>
