<svg width="22" height="22" viewBox="0 0 22 22" fill="none" xmlns="http://www.w3.org/2000/svg">
<path d="M5.50004 13.6769C6.97838 13.6769 8.17681 12.4785 8.17681 11.0001C8.17681 9.52179 6.97838 8.32336 5.50004 8.32336C4.0217 8.32336 2.82327 9.52179 2.82327 11.0001C2.82327 12.4785 4.0217 13.6769 5.50004 13.6769Z" stroke="#4A60A1" stroke-width="1.38209" stroke-linecap="round" stroke-linejoin="round"/>
<path d="M14.8687 19.6995C16.347 19.6995 17.5455 18.5011 17.5455 17.0227C17.5455 15.5444 16.347 14.3459 14.8687 14.3459C13.3904 14.3459 12.1919 15.5444 12.1919 17.0227C12.1919 18.5011 13.3904 19.6995 14.8687 19.6995Z" stroke="#4A60A1" stroke-width="1.38209" stroke-linecap="round" stroke-linejoin="round"/>
<path d="M14.8687 7.65407C16.347 7.65407 17.5455 6.45564 17.5455 4.9773C17.5455 3.49897 16.347 2.30054 14.8687 2.30054C13.3904 2.30054 12.1919 3.49897 12.1919 4.9773C12.1919 6.45564 13.3904 7.65407 14.8687 7.65407Z" stroke="#4A60A1" stroke-width="1.38209" stroke-linecap="round" stroke-linejoin="round"/>
<path d="M12.6186 6.42444L7.75018 9.55291" stroke="#4A60A1" stroke-width="1.38209" stroke-linecap="round" stroke-linejoin="round"/>
<path d="M7.75018 12.4471L12.6186 15.5756" stroke="#4A60A1" stroke-width="1.38209" stroke-linecap="round" stroke-linejoin="round"/>
</svg>
