<svg width="16" height="16" viewBox="0 0 16 16" fill="none" xmlns="http://www.w3.org/2000/svg">
<path d="M4.15984 10.0173C5.16176 10.0173 5.97398 9.20507 5.97398 8.20314C5.97398 7.20122 5.16176 6.38901 4.15984 6.38901C3.15792 6.38901 2.3457 7.20122 2.3457 8.20314C2.3457 9.20507 3.15792 10.0173 4.15984 10.0173Z" stroke="#4A60A1" stroke-width="0.936687" stroke-linecap="round" stroke-linejoin="round"/>
<path d="M10.5095 14.0991C11.5114 14.0991 12.3236 13.2869 12.3236 12.285C12.3236 11.283 11.5114 10.4708 10.5095 10.4708C9.50753 10.4708 8.69531 11.283 8.69531 12.285C8.69531 13.2869 9.50753 14.0991 10.5095 14.0991Z" stroke="#4A60A1" stroke-width="0.936687" stroke-linecap="round" stroke-linejoin="round"/>
<path d="M10.5095 5.93547C11.5114 5.93547 12.3236 5.12325 12.3236 4.12133C12.3236 3.11941 11.5114 2.30719 10.5095 2.30719C9.50753 2.30719 8.69531 3.11941 8.69531 4.12133C8.69531 5.12325 9.50753 5.93547 10.5095 5.93547Z" stroke="#4A60A1" stroke-width="0.936687" stroke-linecap="round" stroke-linejoin="round"/>
<path d="M8.98452 5.10208L5.68506 7.22235" stroke="#4A60A1" stroke-width="0.936687" stroke-linecap="round" stroke-linejoin="round"/>
<path d="M5.68506 9.1839L8.98452 11.3042" stroke="#4A60A1" stroke-width="0.936687" stroke-linecap="round" stroke-linejoin="round"/>
</svg>
