<svg width="18" height="18" viewBox="0 0 18 18" fill="none" xmlns="http://www.w3.org/2000/svg">
<path d="M5.16772 13.0618V14.6945" stroke="#6D737A" stroke-width="1.08848" stroke-linecap="round" stroke-linejoin="round"/>
<path d="M12.7871 13.0618V14.6945" stroke="#6D737A" stroke-width="1.08848" stroke-linecap="round" stroke-linejoin="round"/>
<path d="M4.0791 7.07514V3.53757C4.0791 3.17672 4.22245 2.83065 4.47761 2.57548C4.73278 2.32032 5.07885 2.17697 5.4397 2.17697C5.80056 2.17697 6.14663 2.32032 6.4018 2.57548C6.65696 2.83065 6.80031 3.17672 6.80031 3.53757" stroke="#6D737A" stroke-width="1.08848" stroke-linecap="round" stroke-linejoin="round"/>
<path d="M13.8757 6.53088H9.52173V9.79633H13.8757V6.53088Z" stroke="#6D737A" stroke-width="1.08848" stroke-linecap="round" stroke-linejoin="round"/>
<path d="M13.8755 7.07513H16.0524C16.1968 7.07513 16.3352 7.13247 16.4373 7.23454C16.5393 7.3366 16.5967 7.47503 16.5967 7.61938V9.79634C16.5967 10.6624 16.2526 11.493 15.6402 12.1054C15.0278 12.7178 14.1973 13.0618 13.3312 13.0618H4.62336C3.75731 13.0618 2.92673 12.7178 2.31434 12.1054C1.70195 11.493 1.35791 10.6624 1.35791 9.79634V7.61938C1.35791 7.47503 1.41525 7.3366 1.51731 7.23454C1.61938 7.13247 1.75781 7.07513 1.90215 7.07513H9.52153" stroke="#6D737A" stroke-width="1.08848" stroke-linecap="round" stroke-linejoin="round"/>
</svg>
