<svg width="19" height="19" viewBox="0 0 19 19" fill="none" xmlns="http://www.w3.org/2000/svg">
<path d="M5.66772 14.0524V15.6851" stroke="#6D737A" stroke-width="1.08848" stroke-linecap="round" stroke-linejoin="round"/>
<path d="M13.2871 14.0524V15.6851" stroke="#6D737A" stroke-width="1.08848" stroke-linecap="round" stroke-linejoin="round"/>
<path d="M4.5791 8.06577V4.52821C4.5791 4.16735 4.72245 3.82128 4.97761 3.56611C5.23278 3.31095 5.57885 3.1676 5.9397 3.1676C6.30056 3.1676 6.64663 3.31095 6.9018 3.56611C7.15696 3.82128 7.30031 4.16735 7.30031 4.52821" stroke="#6D737A" stroke-width="1.08848" stroke-linecap="round" stroke-linejoin="round"/>
<path d="M14.3757 7.52148H10.0217V10.7869H14.3757V7.52148Z" stroke="#6D737A" stroke-width="1.08848" stroke-linecap="round" stroke-linejoin="round"/>
<path d="M14.3755 8.0658H16.5524C16.6968 8.0658 16.8352 8.12314 16.9373 8.2252C17.0393 8.32727 17.0967 8.4657 17.0967 8.61004V10.787C17.0967 11.6531 16.7526 12.4836 16.1402 13.096C15.5278 13.7084 14.6973 14.0525 13.8312 14.0525H5.12336C4.25731 14.0525 3.42673 13.7084 2.81434 13.096C2.20195 12.4836 1.85791 11.6531 1.85791 10.787V8.61004C1.85791 8.4657 1.91525 8.32727 2.01731 8.2252C2.11938 8.12314 2.25781 8.0658 2.40215 8.0658H10.0215" stroke="#6D737A" stroke-width="1.08848" stroke-linecap="round" stroke-linejoin="round"/>
</svg>
