<svg width="18" height="18" viewBox="0 0 18 18" fill="none" xmlns="http://www.w3.org/2000/svg">
<path d="M1.58838 8.16364H16.8271" stroke="#6D737A" stroke-width="1.08848" stroke-linecap="round" stroke-linejoin="round"/>
<path d="M15.7388 12.5175V14.1503C15.7388 14.2946 15.6814 14.433 15.5794 14.5351C15.4773 14.6372 15.3389 14.6945 15.1945 14.6945H13.5618C13.4175 14.6945 13.279 14.6372 13.177 14.5351C13.0749 14.433 13.0176 14.2946 13.0176 14.1503V12.5175" stroke="#6D737A" stroke-width="1.08848" stroke-linecap="round" stroke-linejoin="round"/>
<path d="M5.39821 12.5175V14.1503C5.39821 14.2946 5.34087 14.433 5.2388 14.5351C5.13674 14.6372 4.99831 14.6945 4.85397 14.6945H3.22124C3.0769 14.6945 2.93847 14.6372 2.83641 14.5351C2.73434 14.433 2.677 14.2946 2.677 14.1503V12.5175" stroke="#6D737A" stroke-width="1.08848" stroke-linecap="round" stroke-linejoin="round"/>
<path d="M4.854 10.3406H5.94249" stroke="#6D737A" stroke-width="1.08848" stroke-linecap="round" stroke-linejoin="round"/>
<path d="M12.4734 10.3406H13.5619" stroke="#6D737A" stroke-width="1.08848" stroke-linecap="round" stroke-linejoin="round"/>
<path d="M15.7388 8.16361L13.7047 3.59199C13.6625 3.49527 13.5931 3.41291 13.5049 3.35493C13.4167 3.29696 13.3136 3.26587 13.2081 3.26544H5.20772C5.1022 3.26587 4.99907 3.29696 4.9109 3.35493C4.82273 3.41291 4.75331 3.49527 4.7111 3.59199L2.677 8.16361V12.5175H15.7388V8.16361Z" stroke="#6D737A" stroke-width="1.08848" stroke-linecap="round" stroke-linejoin="round"/>
</svg>
