<svg width="19" height="18" viewBox="0 0 19 18" fill="none" xmlns="http://www.w3.org/2000/svg">
<path d="M1.8385 8.16364H17.0773" stroke="#6D737A" stroke-width="1.08848" stroke-linecap="round" stroke-linejoin="round"/>
<path d="M15.9888 12.5175V14.1503C15.9888 14.2946 15.9314 14.433 15.8294 14.5351C15.7273 14.6372 15.5889 14.6945 15.4445 14.6945H13.8118C13.6675 14.6945 13.529 14.6372 13.427 14.5351C13.3249 14.433 13.2676 14.2946 13.2676 14.1503V12.5175" stroke="#6D737A" stroke-width="1.08848" stroke-linecap="round" stroke-linejoin="round"/>
<path d="M5.64821 12.5175V14.1503C5.64821 14.2946 5.59087 14.433 5.4888 14.5351C5.38674 14.6372 5.24831 14.6945 5.10397 14.6945H3.47124C3.3269 14.6945 3.18847 14.6372 3.08641 14.5351C2.98434 14.433 2.927 14.2946 2.927 14.1503V12.5175" stroke="#6D737A" stroke-width="1.08848" stroke-linecap="round" stroke-linejoin="round"/>
<path d="M5.10388 10.3406H6.19236" stroke="#6D737A" stroke-width="1.08848" stroke-linecap="round" stroke-linejoin="round"/>
<path d="M12.7233 10.3406H13.8117" stroke="#6D737A" stroke-width="1.08848" stroke-linecap="round" stroke-linejoin="round"/>
<path d="M15.9888 8.16361L13.9547 3.59199C13.9125 3.49527 13.8431 3.41291 13.7549 3.35493C13.6667 3.29696 13.5636 3.26587 13.4581 3.26544H5.45772C5.3522 3.26587 5.24907 3.29696 5.1609 3.35493C5.07273 3.41291 5.00331 3.49527 4.9611 3.59199L2.927 8.16361V12.5175H15.9888V8.16361Z" stroke="#6D737A" stroke-width="1.08848" stroke-linecap="round" stroke-linejoin="round"/>
</svg>
