<svg width="16" height="16" viewBox="0 0 16 16" fill="none" xmlns="http://www.w3.org/2000/svg">
<path d="M8.06444 13.192C8.06444 13.192 2.39526 10.0173 2.39526 6.16224C2.39526 5.48074 2.63138 4.82029 3.06345 4.29326C3.49551 3.76623 4.09683 3.40517 4.76509 3.27152C5.43336 3.13786 6.12729 3.23987 6.72882 3.56018C7.33035 3.8805 7.80233 4.39933 8.06444 5.02841V5.02841C8.32656 4.39933 8.79853 3.8805 9.40007 3.56018C10.0016 3.23987 10.6955 3.13786 11.3638 3.27152C12.0321 3.40517 12.6334 3.76623 13.0654 4.29326C13.4975 4.82029 13.7336 5.48074 13.7336 6.16224C13.7336 10.0173 8.06444 13.192 8.06444 13.192Z" stroke="#4A60A1" stroke-width="0.936687" stroke-linecap="round" stroke-linejoin="round"/>
</svg>
