<svg width="15" height="16" viewBox="0 0 15 16" fill="none" xmlns="http://www.w3.org/2000/svg">
<path d="M7.56469 13.192C7.56469 13.192 1.89551 10.0173 1.89551 6.16224C1.89551 5.48074 2.13163 4.82029 2.56369 4.29326C2.99575 3.76623 3.59707 3.40517 4.26534 3.27152C4.9336 3.13786 5.62753 3.23987 6.22907 3.56018C6.8306 3.8805 7.30257 4.39933 7.56469 5.02841V5.02841C7.8268 4.39933 8.29878 3.8805 8.90031 3.56018C9.50184 3.23987 10.1958 3.13786 10.864 3.27152C11.5323 3.40517 12.1336 3.76623 12.5657 4.29326C12.9977 4.82029 13.2339 5.48074 13.2339 6.16224C13.2339 10.0173 7.56469 13.192 7.56469 13.192Z" stroke="#4A60A1" stroke-width="0.936687" stroke-linecap="round" stroke-linejoin="round"/>
</svg>
