<svg width="16" height="16" viewBox="0 0 16 16" fill="none" xmlns="http://www.w3.org/2000/svg">
<path d="M7.81444 13.192C7.81444 13.192 2.14526 10.0173 2.14526 6.16224C2.14526 5.48074 2.38138 4.82029 2.81345 4.29326C3.24551 3.76623 3.84683 3.40517 4.51509 3.27152C5.18336 3.13786 5.87729 3.23987 6.47882 3.56018C7.08035 3.8805 7.55233 4.39933 7.81444 5.02841V5.02841C8.07656 4.39933 8.54853 3.8805 9.15007 3.56018C9.7516 3.23987 10.4455 3.13786 11.1138 3.27152C11.7821 3.40517 12.3834 3.76623 12.8154 4.29326C13.2475 4.82029 13.4836 5.48074 13.4836 6.16224C13.4836 10.0173 7.81444 13.192 7.81444 13.192Z" stroke="#4A60A1" stroke-width="0.936687" stroke-linecap="round" stroke-linejoin="round"/>
</svg>
