<svg width="44" height="45" viewBox="0 0 44 45" fill="none" xmlns="http://www.w3.org/2000/svg">
<path d="M37.125 37.6257V20.3523C37.1219 20.162 37.0808 19.9743 37.0041 19.8001C36.9273 19.6259 36.8165 19.4689 36.6781 19.3382L22.9281 6.84292C22.6746 6.61103 22.3435 6.48242 22 6.48242C21.6565 6.48242 21.3254 6.61103 21.0719 6.84292L7.32187 19.3382C7.18351 19.4689 7.07269 19.6259 6.99595 19.8001C6.9192 19.9743 6.87808 20.162 6.875 20.3523V37.6257" stroke="#4A60A1" stroke-width="2.75" stroke-linecap="round" stroke-linejoin="round"/>
<path d="M2.75 37.625H41.25" stroke="#4A60A1" stroke-width="2.75" stroke-linecap="round" stroke-linejoin="round"/>
<path d="M26.125 37.625V28C26.125 27.6353 25.9801 27.2856 25.7223 27.0277C25.4644 26.7699 25.1147 26.625 24.75 26.625H19.25C18.8853 26.625 18.5356 26.7699 18.2777 27.0277C18.0199 27.2856 17.875 27.6353 17.875 28V37.625" stroke="#4A60A1" stroke-width="2.75" stroke-linecap="round" stroke-linejoin="round"/>
</svg>
