<svg width="79" height="78" viewBox="0 0 79 78" fill="none" xmlns="http://www.w3.org/2000/svg">
<path d="M69.6421 38.2564H69.6203C69.3246 38.2564 69.0398 38.1439 68.824 37.9444L56.5725 26.5854C56.0973 26.1446 56.0701 25.4027 56.509 24.9293C56.9498 24.454 57.6917 24.4268 58.1652 24.8658L70.2914 36.1069C70.6071 36.3173 70.8139 36.6764 70.8139 37.0828C70.8139 37.7322 70.2896 38.2564 69.6421 38.2564ZM46.0897 16.4436C45.8049 16.4436 45.5183 16.3402 45.2934 16.1316C41.787 12.8828 39.3236 10.5972 39.3236 10.5972C39.0062 10.3034 38.8774 9.85896 38.9862 9.43993C39.0951 9.02091 39.427 8.69803 39.8479 8.59644L40.0674 8.54384C40.6914 8.3951 41.319 8.77603 41.4768 9.3964C42.3947 10.2471 44.3737 12.0829 46.8878 14.412C47.3631 14.8528 47.3903 15.5947 46.9513 16.0681C46.7191 16.3166 46.4053 16.4436 46.0897 16.4436Z" fill="#4A60A1"/>
<path d="M63.7631 69.4896C63.1572 69.4896 62.6439 69.0235 62.5949 68.4103C62.5749 68.1564 62.6366 67.9151 62.7581 67.7138V37.0761C62.7581 36.4285 63.2824 35.9043 63.93 35.9043C64.5775 35.9043 65.1018 36.4285 65.1018 37.0761V68.3051C65.1018 68.9164 64.632 69.4243 64.0225 69.4733L63.8556 69.486C63.8247 69.4878 63.7939 69.4896 63.7631 69.4896Z" fill="#4A60A1"/>
<path d="M58.4936 25.4301C57.8478 25.4301 57.3217 24.9077 57.3217 24.2601L57.3 13.926C56.8048 13.7809 56.4492 13.3202 56.4583 12.7796C56.471 12.132 57.0097 11.6114 57.6519 11.6295L58.4917 11.6441C59.1303 11.6549 59.6418 12.1755 59.6418 12.8141L59.6654 24.2547C59.6672 24.9022 59.143 25.4283 58.4954 25.4301C58.4954 25.4301 58.4954 25.4301 58.4936 25.4301Z" fill="#4A60A1"/>
<path d="M57.0155 26.1856C57.0155 26.9713 57.6516 27.6074 58.4373 27.6074C59.2224 27.6074 59.8609 26.9718 59.8609 26.1856V12.6699C59.8609 11.8842 59.2248 11.248 58.4391 11.248H49.8881C49.1025 11.248 48.4663 11.8842 48.4663 12.6699V18.2115C48.4663 18.9971 49.1025 19.6333 49.8881 19.6333C50.6738 19.6333 51.3099 18.9971 51.3099 18.2115V14.0917H57.0155V26.1856Z" fill="#1E2640" stroke="#1E2640" stroke-width="0.5"/>
<path d="M8.97489 38.0438C9.25465 38.3499 9.64008 38.506 10.0247 38.506C10.3677 38.506 10.7113 38.3827 10.9839 38.1342L10.9842 38.134L39.9392 11.6677L68.4799 38.1273L68.4802 38.1277C69.0565 38.6599 69.9545 38.6272 70.4893 38.0505L70.4893 38.0505C71.0222 37.4758 70.9889 36.5757 70.4125 36.0411L70.4124 36.0411L40.9125 8.69243C40.3705 8.18792 39.5318 8.18611 38.9861 8.68556L9.06511 36.0344L9.06488 36.0346C8.48668 36.5645 8.4441 37.4643 8.97489 38.0438ZM8.97489 38.0438C8.97496 38.0438 8.97502 38.0439 8.97509 38.044L9.1594 37.8751L8.97484 38.0437C8.97486 38.0437 8.97488 38.0438 8.97489 38.0438Z" fill="#4A60A1" stroke="#4A60A1" stroke-width="0.5"/>
<path d="M15.6406 69.7364H63.9407L65.3607 68.3121V33.757C65.3607 32.9713 64.7245 32.3352 63.9389 32.3352C63.1532 32.3352 62.5171 32.9713 62.5171 33.757V66.891H17.0624V32.7031C17.0624 31.9174 16.4262 31.2812 15.6406 31.2812C14.8549 31.2812 14.2188 31.9174 14.2188 32.7031V68.3146C14.2188 69.1003 14.8549 69.7364 15.6406 69.7364Z" fill="#4A60A1" stroke="#4A60A1" stroke-width="0.5"/>
<path d="M51.5208 40.6504H28.1458C27.5589 40.6504 27.0833 41.1261 27.0833 41.7129V58.7129C27.0833 59.2997 27.5589 59.7754 28.1458 59.7754H51.5208C52.1076 59.7754 52.5833 59.2997 52.5833 58.7129V41.7129C52.5833 41.1261 52.1076 40.6504 51.5208 40.6504Z" stroke="#1E2640" stroke-width="2.5" stroke-linecap="round" stroke-linejoin="round"/>
<path d="M45.1458 40.6504V38.5254C45.1458 37.9618 44.9219 37.4213 44.5234 37.0228C44.1248 36.6243 43.5843 36.4004 43.0208 36.4004H36.6458C36.0822 36.4004 35.5417 36.6243 35.1432 37.0228C34.7446 37.4213 34.5208 37.9618 34.5208 38.5254V40.6504" stroke="#1E2640" stroke-width="2.5" stroke-linecap="round" stroke-linejoin="round"/>
<path d="M52.5833 47.8613C48.7082 50.1024 44.3097 51.2799 39.8333 51.2746C35.3559 51.2863 30.9559 50.1083 27.0833 47.8613" stroke="#1E2640" stroke-width="2.5" stroke-linecap="round" stroke-linejoin="round"/>
<path d="M38.2395 47.0254H41.427" stroke="#1E2640" stroke-width="2.5" stroke-linecap="round" stroke-linejoin="round"/>
</svg>
