<svg width="79" height="78" viewBox="0 0 79 78" fill="none" xmlns="http://www.w3.org/2000/svg">
<path d="M68.9755 38.2564H68.9538C68.6581 38.2564 68.3733 38.1439 68.1575 37.9444L55.906 26.5854C55.4308 26.1446 55.4035 25.4027 55.8425 24.9293C56.2833 24.454 57.0252 24.4268 57.4987 24.8658L69.6249 36.1069C69.9406 36.3173 70.1474 36.6764 70.1474 37.0828C70.1474 37.7322 69.6231 38.2564 68.9755 38.2564ZM45.4232 16.4436C45.1384 16.4436 44.8518 16.3402 44.6269 16.1316C41.1205 12.8828 38.6571 10.5972 38.6571 10.5972C38.3397 10.3034 38.2109 9.85896 38.3197 9.43993C38.4286 9.02091 38.7605 8.69803 39.1814 8.59644L39.4008 8.54384C40.0248 8.3951 40.6525 8.77603 40.8103 9.3964C41.7282 10.2471 43.7072 12.0829 46.2213 14.412C46.6966 14.8528 46.7238 15.5947 46.2848 16.0681C46.0526 16.3166 45.7388 16.4436 45.4232 16.4436Z" fill="#4A60A1"/>
<path d="M63.0967 69.4896C62.4908 69.4896 61.9775 69.0235 61.9285 68.4103C61.9086 68.1564 61.9702 67.9151 62.0918 67.7138V37.0761C62.0918 36.4285 62.616 35.9043 63.2636 35.9043C63.9112 35.9043 64.4354 36.4285 64.4354 37.0761V68.3051C64.4354 68.9164 63.9656 69.4243 63.3561 69.4733L63.1892 69.486C63.1584 69.4878 63.1275 69.4896 63.0967 69.4896Z" fill="#4A60A1"/>
<path d="M57.8269 25.4301C57.1812 25.4301 56.6551 24.9077 56.6551 24.2601L56.6334 13.926C56.1381 13.7809 55.7826 13.3202 55.7917 12.7796C55.8044 12.132 56.3431 11.6114 56.9853 11.6295L57.8251 11.6441C58.4636 11.6549 58.9752 12.1755 58.9752 12.8141L58.9987 24.2547C59.0006 24.9022 58.4763 25.4283 57.8287 25.4301C57.8287 25.4301 57.8287 25.4301 57.8269 25.4301Z" fill="#4A60A1"/>
<path d="M56.349 26.1856C56.349 26.9713 56.9851 27.6074 57.7708 27.6074C58.5559 27.6074 59.1944 26.9718 59.1944 26.1856V12.6699C59.1944 11.8842 58.5582 11.248 57.7726 11.248H49.2216C48.436 11.248 47.7998 11.8842 47.7998 12.6699V18.2115C47.7998 18.9971 48.436 19.6333 49.2216 19.6333C50.0073 19.6333 50.6434 18.9971 50.6434 18.2115V14.0917H56.349V26.1856Z" fill="#1E2640" stroke="#1E2640" stroke-width="0.5"/>
<path d="M8.30839 38.0438C8.58815 38.3499 8.97358 38.506 9.35816 38.506C9.70115 38.506 10.0448 38.3827 10.3174 38.1342L10.3177 38.134L39.2727 11.6677L67.8134 38.1273L67.8137 38.1277C68.3899 38.6599 69.288 38.6272 69.8228 38.0505L69.8228 38.0505C70.3557 37.4758 70.3224 36.5757 69.746 36.0411L69.7459 36.0411L40.246 8.69243C39.704 8.18792 38.8653 8.18611 38.3196 8.68556L8.39861 36.0344L8.39837 36.0346C7.82018 36.5645 7.7776 37.4643 8.30839 38.0438ZM8.30839 38.0438C8.30845 38.0438 8.30852 38.0439 8.30858 38.044L8.4929 37.8751L8.30834 38.0437C8.30835 38.0437 8.30837 38.0438 8.30839 38.0438Z" fill="#4A60A1" stroke="#4A60A1" stroke-width="0.5"/>
<path d="M14.9741 69.7364H63.2742L64.6942 68.3121V33.757C64.6942 32.9713 64.058 32.3352 63.2724 32.3352C62.4867 32.3352 61.8506 32.9713 61.8506 33.757V66.891H16.3959V32.7031C16.3959 31.9174 15.7597 31.2812 14.9741 31.2812C14.1884 31.2812 13.5522 31.9174 13.5522 32.7031V68.3146C13.5522 69.1003 14.1884 69.7364 14.9741 69.7364Z" fill="#4A60A1" stroke="#4A60A1" stroke-width="0.5"/>
<path d="M35.9042 43.5125C35.5791 42.7149 35.4135 41.8613 35.4167 41C35.4167 39.665 35.8126 38.3599 36.5543 37.2499C37.296 36.1399 38.3502 35.2747 39.5836 34.7638C40.817 34.2529 42.1742 34.1193 43.4836 34.3797C44.793 34.6402 45.9957 35.283 46.9397 36.227C47.8837 37.171 48.5266 38.3738 48.787 39.6831C49.0475 40.9925 48.9138 42.3497 48.4029 43.5831C47.892 44.8165 47.0269 45.8707 45.9168 46.6124C44.8068 47.3541 43.5018 47.75 42.1667 47.75C41.3054 47.7532 40.4518 47.5876 39.6542 47.2625V47.2625L38.4167 48.5H36.1667V50.75H33.9167V53H30.1667V49.25L35.9042 43.5125Z" stroke="#1E2640" stroke-width="1.5" stroke-linecap="round" stroke-linejoin="round"/>
<path d="M44.0417 40.25C44.6631 40.25 45.1667 39.7463 45.1667 39.125C45.1667 38.5037 44.6631 38 44.0417 38C43.4204 38 42.9167 38.5037 42.9167 39.125C42.9167 39.7463 43.4204 40.25 44.0417 40.25Z" fill="#1E2640"/>
</svg>
