<svg width="25" height="25" viewBox="0 0 25 25" fill="none" xmlns="http://www.w3.org/2000/svg">
<path d="M12.375 13.7407C14.0319 13.7407 15.375 12.3976 15.375 10.7407C15.375 9.08387 14.0319 7.74072 12.375 7.74072C10.7181 7.74072 9.375 9.08387 9.375 10.7407C9.375 12.3976 10.7181 13.7407 12.375 13.7407Z" stroke="white" stroke-width="1.5" stroke-linecap="round" stroke-linejoin="round"/>
<path d="M19.875 10.7407C19.875 17.4907 12.375 22.7407 12.375 22.7407C12.375 22.7407 4.875 17.4907 4.875 10.7407C4.875 8.7516 5.66518 6.84394 7.0717 5.43742C8.47822 4.0309 10.3859 3.24072 12.375 3.24072C14.3641 3.24072 16.2718 4.0309 17.6783 5.43742C19.0848 6.84394 19.875 8.7516 19.875 10.7407V10.7407Z" stroke="white" stroke-width="1.5" stroke-linecap="round" stroke-linejoin="round"/>
</svg>
