<svg width="25" height="25" viewBox="0 0 25 25" fill="none" xmlns="http://www.w3.org/2000/svg">
<path d="M12.875 13.7407C14.5319 13.7407 15.875 12.3976 15.875 10.7407C15.875 9.08387 14.5319 7.74072 12.875 7.74072C11.2181 7.74072 9.875 9.08387 9.875 10.7407C9.875 12.3976 11.2181 13.7407 12.875 13.7407Z" stroke="white" stroke-width="1.5" stroke-linecap="round" stroke-linejoin="round"/>
<path d="M20.375 10.7407C20.375 17.4907 12.875 22.7407 12.875 22.7407C12.875 22.7407 5.375 17.4907 5.375 10.7407C5.375 8.7516 6.16518 6.84394 7.5717 5.43742C8.97822 4.0309 10.8859 3.24072 12.875 3.24072C14.8641 3.24072 16.7718 4.0309 18.1783 5.43742C19.5848 6.84394 20.375 8.7516 20.375 10.7407V10.7407Z" stroke="white" stroke-width="1.5" stroke-linecap="round" stroke-linejoin="round"/>
</svg>
