<svg width="15" height="16" viewBox="0 0 15 16" fill="none" xmlns="http://www.w3.org/2000/svg">
<path d="M3.66008 10.0173C4.66201 10.0173 5.47422 9.20507 5.47422 8.20314C5.47422 7.20122 4.66201 6.38901 3.66008 6.38901C2.65816 6.38901 1.84595 7.20122 1.84595 8.20314C1.84595 9.20507 2.65816 10.0173 3.66008 10.0173Z" stroke="#4A60A1" stroke-width="0.936687" stroke-linecap="round" stroke-linejoin="round"/>
<path d="M10.0096 14.0991C11.0115 14.0991 11.8237 13.2869 11.8237 12.285C11.8237 11.283 11.0115 10.4708 10.0096 10.4708C9.00765 10.4708 8.19543 11.283 8.19543 12.285C8.19543 13.2869 9.00765 14.0991 10.0096 14.0991Z" stroke="#4A60A1" stroke-width="0.936687" stroke-linecap="round" stroke-linejoin="round"/>
<path d="M10.0096 5.93547C11.0115 5.93547 11.8237 5.12325 11.8237 4.12133C11.8237 3.11941 11.0115 2.30719 10.0096 2.30719C9.00765 2.30719 8.19543 3.11941 8.19543 4.12133C8.19543 5.12325 9.00765 5.93547 10.0096 5.93547Z" stroke="#4A60A1" stroke-width="0.936687" stroke-linecap="round" stroke-linejoin="round"/>
<path d="M8.48464 5.10208L5.18518 7.22235" stroke="#4A60A1" stroke-width="0.936687" stroke-linecap="round" stroke-linejoin="round"/>
<path d="M5.18518 9.1839L8.48464 11.3042" stroke="#4A60A1" stroke-width="0.936687" stroke-linecap="round" stroke-linejoin="round"/>
</svg>
