<svg width="16" height="16" viewBox="0 0 16 16" fill="none" xmlns="http://www.w3.org/2000/svg">
<path d="M4.40984 10.0173C5.41176 10.0173 6.22398 9.20507 6.22398 8.20314C6.22398 7.20122 5.41176 6.38901 4.40984 6.38901C3.40792 6.38901 2.5957 7.20122 2.5957 8.20314C2.5957 9.20507 3.40792 10.0173 4.40984 10.0173Z" stroke="#4A60A1" stroke-width="0.936687" stroke-linecap="round" stroke-linejoin="round"/>
<path d="M10.7595 14.0991C11.7614 14.0991 12.5736 13.2869 12.5736 12.285C12.5736 11.283 11.7614 10.4708 10.7595 10.4708C9.75753 10.4708 8.94531 11.283 8.94531 12.285C8.94531 13.2869 9.75753 14.0991 10.7595 14.0991Z" stroke="#4A60A1" stroke-width="0.936687" stroke-linecap="round" stroke-linejoin="round"/>
<path d="M10.7595 5.93547C11.7614 5.93547 12.5736 5.12325 12.5736 4.12133C12.5736 3.11941 11.7614 2.30719 10.7595 2.30719C9.75753 2.30719 8.94531 3.11941 8.94531 4.12133C8.94531 5.12325 9.75753 5.93547 10.7595 5.93547Z" stroke="#4A60A1" stroke-width="0.936687" stroke-linecap="round" stroke-linejoin="round"/>
<path d="M9.23452 5.10208L5.93506 7.22235" stroke="#4A60A1" stroke-width="0.936687" stroke-linecap="round" stroke-linejoin="round"/>
<path d="M5.93506 9.1839L9.23452 11.3042" stroke="#4A60A1" stroke-width="0.936687" stroke-linecap="round" stroke-linejoin="round"/>
</svg>
