<svg width="22" height="22" viewBox="0 0 22 22" fill="none" xmlns="http://www.w3.org/2000/svg">
<path d="M5.50004 13.6767C6.97838 13.6767 8.17681 12.4782 8.17681 10.9999C8.17681 9.52155 6.97838 8.32312 5.50004 8.32312C4.0217 8.32312 2.82327 9.52155 2.82327 10.9999C2.82327 12.4782 4.0217 13.6767 5.50004 13.6767Z" stroke="#4A60A1" stroke-width="1.38209" stroke-linecap="round" stroke-linejoin="round"/>
<path d="M14.8687 19.6992C16.347 19.6992 17.5455 18.5008 17.5455 17.0225C17.5455 15.5441 16.347 14.3457 14.8687 14.3457C13.3904 14.3457 12.1919 15.5441 12.1919 17.0225C12.1919 18.5008 13.3904 19.6992 14.8687 19.6992Z" stroke="#4A60A1" stroke-width="1.38209" stroke-linecap="round" stroke-linejoin="round"/>
<path d="M14.8687 7.65383C16.347 7.65383 17.5455 6.4554 17.5455 4.97706C17.5455 3.49872 16.347 2.30029 14.8687 2.30029C13.3904 2.30029 12.1919 3.49872 12.1919 4.97706C12.1919 6.4554 13.3904 7.65383 14.8687 7.65383Z" stroke="#4A60A1" stroke-width="1.38209" stroke-linecap="round" stroke-linejoin="round"/>
<path d="M12.6186 6.42407L7.75018 9.55254" stroke="#4A60A1" stroke-width="1.38209" stroke-linecap="round" stroke-linejoin="round"/>
<path d="M7.75018 12.4469L12.6186 15.5754" stroke="#4A60A1" stroke-width="1.38209" stroke-linecap="round" stroke-linejoin="round"/>
</svg>
