<svg width="16" height="16" viewBox="0 0 16 16" fill="none" xmlns="http://www.w3.org/2000/svg">
<path d="M4.16008 10.0078C5.16201 10.0078 5.97422 9.19557 5.97422 8.19365C5.97422 7.19173 5.16201 6.37952 4.16008 6.37952C3.15816 6.37952 2.34595 7.19173 2.34595 8.19365C2.34595 9.19557 3.15816 10.0078 4.16008 10.0078Z" stroke="#4A60A1" stroke-width="0.936687" stroke-linecap="round" stroke-linejoin="round"/>
<path d="M10.5097 14.0896C11.5116 14.0896 12.3238 13.2774 12.3238 12.2754C12.3238 11.2735 11.5116 10.4613 10.5097 10.4613C9.50777 10.4613 8.69556 11.2735 8.69556 12.2754C8.69556 13.2774 9.50777 14.0896 10.5097 14.0896Z" stroke="#4A60A1" stroke-width="0.936687" stroke-linecap="round" stroke-linejoin="round"/>
<path d="M10.5097 5.926C11.5116 5.926 12.3238 5.11379 12.3238 4.11187C12.3238 3.10995 11.5116 2.29773 10.5097 2.29773C9.50777 2.29773 8.69556 3.10995 8.69556 4.11187C8.69556 5.11379 9.50777 5.926 10.5097 5.926Z" stroke="#4A60A1" stroke-width="0.936687" stroke-linecap="round" stroke-linejoin="round"/>
<path d="M8.98452 5.09265L5.68506 7.21292" stroke="#4A60A1" stroke-width="0.936687" stroke-linecap="round" stroke-linejoin="round"/>
<path d="M5.68506 9.17444L8.98452 11.2947" stroke="#4A60A1" stroke-width="0.936687" stroke-linecap="round" stroke-linejoin="round"/>
</svg>
