<svg width="20" height="20" viewBox="0 0 20 20" fill="none" xmlns="http://www.w3.org/2000/svg">
<path d="M8.07031 8.92171C8.07031 8.92171 9.96264 8.78305 9.96264 6.59275C9.96264 4.40229 8.41448 3.33331 6.4534 3.33331H0.000244141V15.5739H6.4534C6.4534 15.5739 10.3928 15.6967 10.3928 11.961C10.3928 11.9611 10.5646 8.92171 8.07031 8.92171V8.92171ZM5.9889 5.50893H6.4534C6.4534 5.50893 7.33057 5.50893 7.33057 6.78251C7.33057 8.05593 6.8147 8.24056 6.22956 8.24056H2.84358V5.50893H5.9889V5.50893ZM6.27104 13.3983H2.84358V10.1272H6.4534C6.4534 10.1272 7.76078 10.1103 7.76078 11.8082C7.76078 13.24 6.78429 13.3875 6.27104 13.3983V13.3983ZM15.6467 6.44767C10.8776 6.44767 10.8818 11.1509 10.8818 11.1509C10.8818 11.1509 10.5546 15.8299 15.6467 15.8299C15.6467 15.8299 19.8901 16.0692 19.8901 12.575H17.7078C17.7078 12.575 17.7805 13.8908 15.7195 13.8908C15.7195 13.8908 13.5368 14.0352 13.5368 11.7613H19.9628C19.9628 11.7612 20.666 6.44767 15.6467 6.44767ZM13.5129 10.1272C13.5129 10.1272 13.7793 8.24052 15.6952 8.24052C17.6106 8.24052 17.5866 10.1272 17.5866 10.1272H13.5129ZM18.095 5.56177H12.9786V4.05444H18.095V5.56177Z" fill="#4A60A1"/>
</svg>
